name C:/MyDriveSym/Projects/mobilecap/Data\Session20210903_0002\mocap\ForceDataProcessed\walkingTS1_forces.mot
datacolumns 19
datarows 22
range 0.36700000 0.37750000
endheader 
time	R_ground_force_vx	R_ground_force_vy	R_ground_force_vz	R_ground_force_px	R_ground_force_py	R_ground_force_pz	R_ground_torque_x	R_ground_torque_y	R_ground_torque_z	L_ground_force_vx	L_ground_force_vy	L_ground_force_vz	L_ground_force_px	L_ground_force_py	L_ground_force_pz	L_ground_torque_x	L_ground_torque_y	L_ground_torque_z	
          0.36700000	         -0.44503400	        493.85644800	        -26.54185100	          0.19446200	          0.00600000	         -0.13969400	          0.00000000	         -1.90763300	          0.00000000	          0.00000000	          0.00000000	          0.00000000	          0.70343100	          0.00000000	         -0.24880100	          0.00000000	          0.00000000	          0.00000000	
          0.36750000	         -0.30233000	        494.21021400	        -26.59200700	          0.19458600	          0.00600000	         -0.13968100	          0.00000000	         -1.90958300	          0.00000000	          0.00000000	          0.00000000	          0.00000000	          0.70343100	          0.00000000	         -0.24880100	          0.00000000	          0.00000000	          0.00000000	
          0.36800000	         -0.15912600	        494.56381100	        -26.64245900	          0.19471100	          0.00600000	         -0.13966800	          0.00000000	         -1.91147500	          0.00000000	          0.00000000	          0.00000000	          0.00000000	          0.70343100	          0.00000000	         -0.24880100	          0.00000000	          0.00000000	          0.00000000	
          0.36850000	         -0.01542300	        494.91722400	        -26.69320300	          0.19483500	          0.00600000	         -0.13965400	          0.00000000	         -1.91330700	          0.00000000	          0.00000000	          0.00000000	          0.00000000	          0.70343100	          0.00000000	         -0.24880100	          0.00000000	          0.00000000	          0.00000000	
          0.36900000	          0.12878100	        495.27043800	        -26.74423700	          0.19495800	          0.00600000	         -0.13964100	          0.00000000	         -1.91508100	          0.00000000	          0.00000000	          0.00000000	          0.00000000	          0.70343100	          0.00000000	         -0.24880100	          0.00000000	          0.00000000	          0.00000000	
          0.36950000	          0.27348600	        495.62343900	        -26.79555800	          0.19508200	          0.00600000	         -0.13962800	          0.00000000	         -1.91679600	          0.00000000	          0.00000000	          0.00000000	          0.00000000	          0.70343100	          0.00000000	         -0.24880100	          0.00000000	          0.00000000	          0.00000000	
          0.37000000	          0.41869400	        495.97621200	        -26.84716100	          0.19520500	          0.00600000	         -0.13961600	          0.00000000	         -1.91845300	          0.00000000	          0.00000000	          0.00000000	          0.00000000	          0.70343100	          0.00000000	         -0.24880100	          0.00000000	          0.00000000	          0.00000000	
          0.37050000	          0.56440300	        496.32874300	        -26.89904400	          0.19532700	          0.00600000	         -0.13960300	          0.00000000	         -1.92005100	          0.00000000	          0.00000000	          0.00000000	          0.00000000	          0.70343100	          0.00000000	         -0.24880100	          0.00000000	          0.00000000	          0.00000000	
          0.37100000	          0.71061600	        496.68101900	        -26.95120300	          0.19545000	          0.00600000	         -0.13959100	          0.00000000	         -1.92159100	          0.00000000	          0.00000000	          0.00000000	          0.00000000	          0.70343100	          0.00000000	         -0.24880100	          0.00000000	          0.00000000	          0.00000000	
          0.37150000	          0.85733300	        497.03302500	        -27.00363500	          0.19557200	          0.00600000	         -0.13957800	          0.00000000	         -1.92307300	          0.00000000	          0.00000000	          0.00000000	          0.00000000	          0.70343100	          0.00000000	         -0.24880100	          0.00000000	          0.00000000	          0.00000000	
          0.37200000	          1.00455300	        497.38474800	        -27.05633600	          0.19569400	          0.00600000	         -0.13956600	          0.00000000	         -1.92449700	          0.00000000	          0.00000000	          0.00000000	          0.00000000	          0.70343100	          0.00000000	         -0.24880100	          0.00000000	          0.00000000	          0.00000000	
          0.37250000	          1.15227900	        497.73617500	        -27.10930300	          0.19581500	          0.00600000	         -0.13955400	          0.00000000	         -1.92586300	          0.00000000	          0.00000000	          0.00000000	          0.00000000	          0.70343100	          0.00000000	         -0.24880100	          0.00000000	          0.00000000	          0.00000000	
          0.37300000	          1.30051000	        498.08729200	        -27.16253400	          0.19593700	          0.00600000	         -0.13954200	          0.00000000	         -1.92717200	          0.00000000	          0.00000000	          0.00000000	          0.00000000	          0.70343100	          0.00000000	         -0.24880100	          0.00000000	          0.00000000	          0.00000000	
          0.37350000	          1.44924800	        498.43808700	        -27.21602300	          0.19605800	          0.00600000	         -0.13953100	          0.00000000	         -1.92842300	          0.00000000	          0.00000000	          0.00000000	          0.00000000	          0.70343100	          0.00000000	         -0.24880100	          0.00000000	          0.00000000	          0.00000000	
          0.37400000	          1.59849100	        498.78854600	        -27.26976900	          0.19617800	          0.00600000	         -0.13951900	          0.00000000	         -1.92961600	          0.00000000	          0.00000000	          0.00000000	          0.00000000	          0.70343100	          0.00000000	         -0.24880100	          0.00000000	          0.00000000	          0.00000000	
          0.37450000	          1.74824200	        499.13865800	        -27.32376700	          0.19629900	          0.00600000	         -0.13950800	          0.00000000	         -1.93075200	          0.00000000	          0.00000000	          0.00000000	          0.00000000	          0.70343100	          0.00000000	         -0.24880100	          0.00000000	          0.00000000	          0.00000000	
          0.37500000	          1.89850000	        499.48841100	        -27.37801400	          0.19641900	          0.00600000	         -0.13949700	          0.00000000	         -1.93183100	          0.00000000	          0.00000000	          0.00000000	          0.00000000	          0.70343100	          0.00000000	         -0.24880100	          0.00000000	          0.00000000	          0.00000000	
          0.37550000	          2.04926600	        499.83779100	        -27.43250600	          0.19653900	          0.00600000	         -0.13948600	          0.00000000	         -1.93285400	          0.00000000	          0.00000000	          0.00000000	          0.00000000	          0.70343100	          0.00000000	         -0.24880100	          0.00000000	          0.00000000	          0.00000000	
          0.37600000	          2.20054100	        500.18678700	        -27.48724100	          0.19665900	          0.00600000	         -0.13947500	          0.00000000	         -1.93381900	          0.00000000	          0.00000000	          0.00000000	          0.00000000	          0.70343100	          0.00000000	         -0.24880100	          0.00000000	          0.00000000	          0.00000000	
          0.37650000	          2.35232400	        500.53538700	        -27.54221400	          0.19677800	          0.00600000	         -0.13946400	          0.00000000	         -1.93472800	          0.00000000	          0.00000000	          0.00000000	          0.00000000	          0.70343100	          0.00000000	         -0.24880100	          0.00000000	          0.00000000	          0.00000000	
          0.37700000	          2.50461600	        500.88358000	        -27.59742200	          0.19689700	          0.00600000	         -0.13945300	          0.00000000	         -1.93558000	          0.00000000	          0.00000000	          0.00000000	          0.00000000	          0.70343100	          0.00000000	         -0.24880100	          0.00000000	          0.00000000	          0.00000000	
          0.37750000	          2.65741900	        501.23135500	        -27.65286100	          0.19701600	          0.00600000	         -0.13944300	          0.00000000	         -1.93637600	          0.00000000	          0.00000000	          0.00000000	          0.00000000	          0.70343100	          0.00000000	         -0.24880100	          0.00000000	          0.00000000	          0.00000000	
